<svg width="48" height="48" viewBox="0 0 48 48" fill="none" xmlns="http://www.w3.org/2000/svg">
<path d="M0 10C0 4.47715 4.47715 0 10 0H38C43.5229 0 48 4.47715 48 10V38C48 43.5229 43.5228 48 38 48H10C4.47715 48 0 43.5228 0 38V10Z" fill="#F0B100"/>
<path d="M23.5248 14.2949C23.5687 14.2064 23.6364 14.1318 23.7203 14.0797C23.8042 14.0276 23.9011 14 23.9998 14C24.0986 14 24.1955 14.0276 24.2794 14.0797C24.3633 14.1318 24.431 14.2064 24.4748 14.2949L26.7848 18.9739C26.937 19.2819 27.1617 19.5483 27.4395 19.7503C27.7173 19.9524 28.04 20.084 28.3798 20.1339L33.5458 20.8899C33.6437 20.9041 33.7357 20.9454 33.8113 21.0091C33.887 21.0728 33.9433 21.1564 33.9739 21.2505C34.0045 21.3446 34.0081 21.4453 33.9844 21.5413C33.9607 21.6374 33.9107 21.7248 33.8398 21.7939L30.1038 25.4319C29.8575 25.672 29.6731 25.9684 29.5667 26.2955C29.4602 26.6227 29.4349 26.9708 29.4928 27.3099L30.3748 32.4499C30.3921 32.5477 30.3816 32.6485 30.3443 32.7406C30.3071 32.8327 30.2448 32.9125 30.1644 32.9709C30.084 33.0293 29.9888 33.0639 29.8897 33.0708C29.7906 33.0777 29.6915 33.0566 29.6038 33.0099L24.9858 30.5819C24.6816 30.4221 24.343 30.3386 23.9993 30.3386C23.6557 30.3386 23.3171 30.4221 23.0128 30.5819L18.3958 33.0099C18.3082 33.0563 18.2092 33.0772 18.1103 33.0701C18.0114 33.0631 17.9164 33.0285 17.8361 32.9701C17.7559 32.9118 17.6937 32.8321 17.6565 32.7401C17.6193 32.6482 17.6087 32.5476 17.6258 32.4499L18.5068 27.3109C18.565 26.9716 18.5398 26.6233 18.4334 26.2959C18.3269 25.9686 18.1425 25.672 17.8958 25.4319L14.1598 21.7949C14.0884 21.7259 14.0378 21.6383 14.0138 21.542C13.9898 21.4456 13.9933 21.3445 14.0239 21.2501C14.0546 21.1557 14.1111 21.0717 14.1871 21.0079C14.2631 20.944 14.3556 20.9028 14.4538 20.8889L19.6188 20.1339C19.9591 20.0844 20.2822 19.953 20.5604 19.7509C20.8386 19.5488 21.0636 19.2822 21.2158 18.9739L23.5248 14.2949Z" stroke="white" stroke-width="2" stroke-linecap="round" stroke-linejoin="round"/>
</svg>
